<mxfile host="app.diagrams.net" agent="Mozilla/5.0 (X11; Linux x86_64; Chromium GOST) AppleWebKit/537.36 (KHTML, like Gecko) Chrome/138.0.0.0 Safari/537.36" version="28.2.8">
  <diagram name="Страница — 1" id="fm3IAG2iMIYE5_vdJ6em">
    <mxGraphModel dx="3128" dy="1738" grid="1" gridSize="10" guides="1" tooltips="1" connect="1" arrows="1" fold="1" page="1" pageScale="1" pageWidth="827" pageHeight="1169" math="0" shadow="0">
      <root>
        <mxCell id="0" />
        <mxCell id="1" parent="0" />
        <mxCell id="f_rpFH3b43a7El98nDZN-1" value="Начало" style="strokeWidth=2;html=1;shape=mxgraph.flowchart.terminator;whiteSpace=wrap;" vertex="1" parent="1">
          <mxGeometry x="40" y="40" width="200" height="40" as="geometry" />
        </mxCell>
        <mxCell id="f_rpFH3b43a7El98nDZN-3" value="ввод числа" style="rounded=0;whiteSpace=wrap;html=1;" vertex="1" parent="1">
          <mxGeometry x="40" y="120" width="200" height="80" as="geometry" />
        </mxCell>
        <mxCell id="f_rpFH3b43a7El98nDZN-4" value="получение значения длины числа" style="rounded=0;whiteSpace=wrap;html=1;" vertex="1" parent="1">
          <mxGeometry x="40" y="240" width="200" height="80" as="geometry" />
        </mxCell>
        <mxCell id="f_rpFH3b43a7El98nDZN-5" value="Проход по цифрам в числе" style="strokeWidth=2;html=1;shape=mxgraph.flowchart.loop_limit;whiteSpace=wrap;" vertex="1" parent="1">
          <mxGeometry x="40" y="360" width="200" height="80" as="geometry" />
        </mxCell>
        <mxCell id="f_rpFH3b43a7El98nDZN-6" value="вывод суммы цифр" style="rounded=0;whiteSpace=wrap;html=1;" vertex="1" parent="1">
          <mxGeometry x="40" y="480" width="200" height="80" as="geometry" />
        </mxCell>
        <mxCell id="f_rpFH3b43a7El98nDZN-7" value="Вывод произведения цифр" style="rounded=0;whiteSpace=wrap;html=1;" vertex="1" parent="1">
          <mxGeometry x="40" y="600" width="200" height="80" as="geometry" />
        </mxCell>
        <mxCell id="f_rpFH3b43a7El98nDZN-8" value="" style="strokeWidth=2;html=1;shape=mxgraph.flowchart.loop_limit;whiteSpace=wrap;rotation=-180;" vertex="1" parent="1">
          <mxGeometry x="40" y="720" width="200" height="80" as="geometry" />
        </mxCell>
        <mxCell id="f_rpFH3b43a7El98nDZN-9" value="Конец цикла" style="text;html=1;whiteSpace=wrap;strokeColor=none;fillColor=none;align=center;verticalAlign=middle;rounded=0;" vertex="1" parent="1">
          <mxGeometry x="110" y="745" width="60" height="30" as="geometry" />
        </mxCell>
        <mxCell id="f_rpFH3b43a7El98nDZN-10" value="A" style="ellipse;whiteSpace=wrap;html=1;aspect=fixed;" vertex="1" parent="1">
          <mxGeometry x="120" y="840" width="40" height="40" as="geometry" />
        </mxCell>
        <mxCell id="f_rpFH3b43a7El98nDZN-11" value="A" style="ellipse;whiteSpace=wrap;html=1;aspect=fixed;" vertex="1" parent="1">
          <mxGeometry x="360" y="40" width="40" height="40" as="geometry" />
        </mxCell>
        <mxCell id="f_rpFH3b43a7El98nDZN-12" value="если сумма = произведению" style="rhombus;whiteSpace=wrap;html=1;" vertex="1" parent="1">
          <mxGeometry x="280" y="120" width="200" height="80" as="geometry" />
        </mxCell>
        <mxCell id="f_rpFH3b43a7El98nDZN-13" value="Вывод &quot;число счастливое&quot;" style="rounded=0;whiteSpace=wrap;html=1;" vertex="1" parent="1">
          <mxGeometry x="280" y="240" width="200" height="80" as="geometry" />
        </mxCell>
        <mxCell id="f_rpFH3b43a7El98nDZN-14" value="Вывод &quot;число несчастливое&quot;" style="rounded=0;whiteSpace=wrap;html=1;" vertex="1" parent="1">
          <mxGeometry x="520" y="240" width="200" height="80" as="geometry" />
        </mxCell>
        <mxCell id="f_rpFH3b43a7El98nDZN-15" value="Конец" style="strokeWidth=2;html=1;shape=mxgraph.flowchart.terminator;whiteSpace=wrap;" vertex="1" parent="1">
          <mxGeometry x="280" y="360" width="200" height="40" as="geometry" />
        </mxCell>
        <mxCell id="f_rpFH3b43a7El98nDZN-16" value="" style="endArrow=none;html=1;rounded=0;entryX=0.5;entryY=1;entryDx=0;entryDy=0;exitX=0.5;exitY=0;exitDx=0;exitDy=0;exitPerimeter=0;" edge="1" parent="1" source="f_rpFH3b43a7El98nDZN-15" target="f_rpFH3b43a7El98nDZN-13">
          <mxGeometry width="50" height="50" relative="1" as="geometry">
            <mxPoint x="320" y="390" as="sourcePoint" />
            <mxPoint x="370" y="340" as="targetPoint" />
          </mxGeometry>
        </mxCell>
        <mxCell id="f_rpFH3b43a7El98nDZN-17" value="" style="endArrow=none;html=1;rounded=0;entryX=0.5;entryY=1;entryDx=0;entryDy=0;exitX=0.5;exitY=0;exitDx=0;exitDy=0;" edge="1" parent="1" source="f_rpFH3b43a7El98nDZN-31" target="f_rpFH3b43a7El98nDZN-12">
          <mxGeometry width="50" height="50" relative="1" as="geometry">
            <mxPoint x="410" y="250" as="sourcePoint" />
            <mxPoint x="460" y="200" as="targetPoint" />
          </mxGeometry>
        </mxCell>
        <mxCell id="f_rpFH3b43a7El98nDZN-19" value="" style="endArrow=none;html=1;rounded=0;entryX=0.5;entryY=1;entryDx=0;entryDy=0;exitX=0.5;exitY=0;exitDx=0;exitDy=0;" edge="1" parent="1" source="f_rpFH3b43a7El98nDZN-12" target="f_rpFH3b43a7El98nDZN-11">
          <mxGeometry width="50" height="50" relative="1" as="geometry">
            <mxPoint x="280" y="140" as="sourcePoint" />
            <mxPoint x="330" y="90" as="targetPoint" />
          </mxGeometry>
        </mxCell>
        <mxCell id="f_rpFH3b43a7El98nDZN-24" value="" style="endArrow=none;html=1;rounded=0;entryX=0.5;entryY=1;entryDx=0;entryDy=0;exitX=0.5;exitY=0;exitDx=0;exitDy=0;exitPerimeter=0;" edge="1" parent="1">
          <mxGeometry width="50" height="50" relative="1" as="geometry">
            <mxPoint x="139.66" y="360" as="sourcePoint" />
            <mxPoint x="139.66" y="320" as="targetPoint" />
          </mxGeometry>
        </mxCell>
        <mxCell id="f_rpFH3b43a7El98nDZN-25" value="" style="endArrow=none;html=1;rounded=0;entryX=0.5;entryY=1;entryDx=0;entryDy=0;exitX=0.5;exitY=0;exitDx=0;exitDy=0;" edge="1" parent="1">
          <mxGeometry width="50" height="50" relative="1" as="geometry">
            <mxPoint x="139.66" y="240" as="sourcePoint" />
            <mxPoint x="139.66" y="200" as="targetPoint" />
          </mxGeometry>
        </mxCell>
        <mxCell id="f_rpFH3b43a7El98nDZN-26" value="" style="endArrow=none;html=1;rounded=0;entryX=0.5;entryY=1;entryDx=0;entryDy=0;exitX=0.5;exitY=0;exitDx=0;exitDy=0;" edge="1" parent="1">
          <mxGeometry width="50" height="50" relative="1" as="geometry">
            <mxPoint x="139.66" y="120" as="sourcePoint" />
            <mxPoint x="139.66" y="80" as="targetPoint" />
          </mxGeometry>
        </mxCell>
        <mxCell id="f_rpFH3b43a7El98nDZN-27" value="" style="endArrow=none;html=1;rounded=0;entryX=0.5;entryY=1;entryDx=0;entryDy=0;exitX=0.5;exitY=0;exitDx=0;exitDy=0;exitPerimeter=0;" edge="1" parent="1">
          <mxGeometry width="50" height="50" relative="1" as="geometry">
            <mxPoint x="139.66" y="720" as="sourcePoint" />
            <mxPoint x="139.66" y="680" as="targetPoint" />
          </mxGeometry>
        </mxCell>
        <mxCell id="f_rpFH3b43a7El98nDZN-28" value="" style="endArrow=none;html=1;rounded=0;entryX=0.5;entryY=1;entryDx=0;entryDy=0;exitX=0.5;exitY=0;exitDx=0;exitDy=0;" edge="1" parent="1">
          <mxGeometry width="50" height="50" relative="1" as="geometry">
            <mxPoint x="139.66" y="600" as="sourcePoint" />
            <mxPoint x="139.66" y="560" as="targetPoint" />
          </mxGeometry>
        </mxCell>
        <mxCell id="f_rpFH3b43a7El98nDZN-29" value="" style="endArrow=none;html=1;rounded=0;entryX=0.5;entryY=1;entryDx=0;entryDy=0;exitX=0.5;exitY=0;exitDx=0;exitDy=0;" edge="1" parent="1">
          <mxGeometry width="50" height="50" relative="1" as="geometry">
            <mxPoint x="139.66" y="480" as="sourcePoint" />
            <mxPoint x="139.66" y="440" as="targetPoint" />
          </mxGeometry>
        </mxCell>
        <mxCell id="f_rpFH3b43a7El98nDZN-30" value="" style="endArrow=none;html=1;rounded=0;entryX=0.5;entryY=0;entryDx=0;entryDy=0;entryPerimeter=0;exitX=0.5;exitY=0;exitDx=0;exitDy=0;" edge="1" parent="1" source="f_rpFH3b43a7El98nDZN-10" target="f_rpFH3b43a7El98nDZN-8">
          <mxGeometry width="50" height="50" relative="1" as="geometry">
            <mxPoint x="-10" y="920" as="sourcePoint" />
            <mxPoint x="40" y="870" as="targetPoint" />
          </mxGeometry>
        </mxCell>
        <mxCell id="f_rpFH3b43a7El98nDZN-33" value="" style="endArrow=none;html=1;rounded=0;entryX=0.5;entryY=1;entryDx=0;entryDy=0;exitX=0.5;exitY=0;exitDx=0;exitDy=0;" edge="1" parent="1" source="f_rpFH3b43a7El98nDZN-13" target="f_rpFH3b43a7El98nDZN-31">
          <mxGeometry width="50" height="50" relative="1" as="geometry">
            <mxPoint x="380" y="240" as="sourcePoint" />
            <mxPoint x="380" y="200" as="targetPoint" />
          </mxGeometry>
        </mxCell>
        <mxCell id="f_rpFH3b43a7El98nDZN-31" value="Да" style="text;html=1;whiteSpace=wrap;strokeColor=none;fillColor=none;align=center;verticalAlign=middle;rounded=0;" vertex="1" parent="1">
          <mxGeometry x="368" y="210" width="24" height="10" as="geometry" />
        </mxCell>
        <mxCell id="f_rpFH3b43a7El98nDZN-36" value="" style="endArrow=none;html=1;rounded=0;entryX=1;entryY=0.5;entryDx=0;entryDy=0;exitX=0.5;exitY=0;exitDx=0;exitDy=0;" edge="1" parent="1" source="f_rpFH3b43a7El98nDZN-14" target="f_rpFH3b43a7El98nDZN-34">
          <mxGeometry width="50" height="50" relative="1" as="geometry">
            <mxPoint x="620" y="240" as="sourcePoint" />
            <mxPoint x="480" y="160" as="targetPoint" />
            <Array as="points">
              <mxPoint x="620" y="160" />
            </Array>
          </mxGeometry>
        </mxCell>
        <mxCell id="f_rpFH3b43a7El98nDZN-34" value="Нет" style="text;html=1;whiteSpace=wrap;strokeColor=none;fillColor=none;align=center;verticalAlign=middle;rounded=0;" vertex="1" parent="1">
          <mxGeometry x="510" y="155" width="24" height="10" as="geometry" />
        </mxCell>
        <mxCell id="f_rpFH3b43a7El98nDZN-38" value="" style="endArrow=none;html=1;rounded=0;entryX=0;entryY=0.5;entryDx=0;entryDy=0;exitX=1;exitY=0.5;exitDx=0;exitDy=0;" edge="1" parent="1" source="f_rpFH3b43a7El98nDZN-12" target="f_rpFH3b43a7El98nDZN-34">
          <mxGeometry width="50" height="50" relative="1" as="geometry">
            <mxPoint x="450" y="220" as="sourcePoint" />
            <mxPoint x="500" y="170" as="targetPoint" />
          </mxGeometry>
        </mxCell>
        <mxCell id="f_rpFH3b43a7El98nDZN-39" value="Начало" style="strokeWidth=2;html=1;shape=mxgraph.flowchart.terminator;whiteSpace=wrap;" vertex="1" parent="1">
          <mxGeometry x="840" y="40" width="200" height="40" as="geometry" />
        </mxCell>
        <mxCell id="f_rpFH3b43a7El98nDZN-40" value="ввод числа" style="rounded=0;whiteSpace=wrap;html=1;" vertex="1" parent="1">
          <mxGeometry x="840" y="120" width="200" height="80" as="geometry" />
        </mxCell>
        <mxCell id="f_rpFH3b43a7El98nDZN-41" value="Получение длины числа" style="rounded=0;whiteSpace=wrap;html=1;" vertex="1" parent="1">
          <mxGeometry x="840" y="360" width="200" height="80" as="geometry" />
        </mxCell>
        <mxCell id="f_rpFH3b43a7El98nDZN-42" value="Проход по цифрам в числе с конца" style="strokeWidth=2;html=1;shape=mxgraph.flowchart.loop_limit;whiteSpace=wrap;" vertex="1" parent="1">
          <mxGeometry x="840" y="480" width="200" height="80" as="geometry" />
        </mxCell>
        <mxCell id="f_rpFH3b43a7El98nDZN-43" value="Обозначение пустой переменной outcome" style="rounded=0;whiteSpace=wrap;html=1;" vertex="1" parent="1">
          <mxGeometry x="840" y="240" width="200" height="80" as="geometry" />
        </mxCell>
        <mxCell id="f_rpFH3b43a7El98nDZN-44" value="запись цифры числа в outcome" style="rounded=0;whiteSpace=wrap;html=1;" vertex="1" parent="1">
          <mxGeometry x="840" y="600" width="200" height="80" as="geometry" />
        </mxCell>
        <mxCell id="f_rpFH3b43a7El98nDZN-45" value="" style="strokeWidth=2;html=1;shape=mxgraph.flowchart.loop_limit;whiteSpace=wrap;rotation=-180;" vertex="1" parent="1">
          <mxGeometry x="840" y="720" width="200" height="80" as="geometry" />
        </mxCell>
        <mxCell id="f_rpFH3b43a7El98nDZN-46" value="A" style="ellipse;whiteSpace=wrap;html=1;aspect=fixed;" vertex="1" parent="1">
          <mxGeometry x="920" y="840" width="40" height="40" as="geometry" />
        </mxCell>
        <mxCell id="f_rpFH3b43a7El98nDZN-47" value="A" style="ellipse;whiteSpace=wrap;html=1;aspect=fixed;" vertex="1" parent="1">
          <mxGeometry x="1160" y="40" width="40" height="40" as="geometry" />
        </mxCell>
        <mxCell id="f_rpFH3b43a7El98nDZN-48" value="Вывод outcome" style="rounded=0;whiteSpace=wrap;html=1;" vertex="1" parent="1">
          <mxGeometry x="1080" y="120" width="200" height="80" as="geometry" />
        </mxCell>
        <mxCell id="f_rpFH3b43a7El98nDZN-49" value="Конец цикла" style="text;html=1;whiteSpace=wrap;strokeColor=none;fillColor=none;align=center;verticalAlign=middle;rounded=0;" vertex="1" parent="1">
          <mxGeometry x="910" y="745" width="60" height="30" as="geometry" />
        </mxCell>
        <mxCell id="f_rpFH3b43a7El98nDZN-57" value="" style="endArrow=none;html=1;rounded=0;entryX=0.5;entryY=1;entryDx=0;entryDy=0;exitX=0.5;exitY=0;exitDx=0;exitDy=0;exitPerimeter=0;" edge="1" parent="1">
          <mxGeometry width="50" height="50" relative="1" as="geometry">
            <mxPoint x="939.49" y="360" as="sourcePoint" />
            <mxPoint x="939.49" y="320" as="targetPoint" />
          </mxGeometry>
        </mxCell>
        <mxCell id="f_rpFH3b43a7El98nDZN-58" value="" style="endArrow=none;html=1;rounded=0;entryX=0.5;entryY=1;entryDx=0;entryDy=0;exitX=0.5;exitY=0;exitDx=0;exitDy=0;" edge="1" parent="1">
          <mxGeometry width="50" height="50" relative="1" as="geometry">
            <mxPoint x="939.49" y="240" as="sourcePoint" />
            <mxPoint x="939.49" y="200" as="targetPoint" />
          </mxGeometry>
        </mxCell>
        <mxCell id="f_rpFH3b43a7El98nDZN-59" value="" style="endArrow=none;html=1;rounded=0;entryX=0.5;entryY=1;entryDx=0;entryDy=0;exitX=0.5;exitY=0;exitDx=0;exitDy=0;" edge="1" parent="1">
          <mxGeometry width="50" height="50" relative="1" as="geometry">
            <mxPoint x="939.49" y="120" as="sourcePoint" />
            <mxPoint x="939.49" y="80" as="targetPoint" />
          </mxGeometry>
        </mxCell>
        <mxCell id="f_rpFH3b43a7El98nDZN-60" value="" style="endArrow=none;html=1;rounded=0;entryX=0.5;entryY=1;entryDx=0;entryDy=0;exitX=0.5;exitY=0;exitDx=0;exitDy=0;exitPerimeter=0;" edge="1" parent="1">
          <mxGeometry width="50" height="50" relative="1" as="geometry">
            <mxPoint x="939.49" y="720" as="sourcePoint" />
            <mxPoint x="939.49" y="680" as="targetPoint" />
          </mxGeometry>
        </mxCell>
        <mxCell id="f_rpFH3b43a7El98nDZN-61" value="" style="endArrow=none;html=1;rounded=0;entryX=0.5;entryY=1;entryDx=0;entryDy=0;exitX=0.5;exitY=0;exitDx=0;exitDy=0;" edge="1" parent="1">
          <mxGeometry width="50" height="50" relative="1" as="geometry">
            <mxPoint x="939.49" y="600" as="sourcePoint" />
            <mxPoint x="939.49" y="560" as="targetPoint" />
          </mxGeometry>
        </mxCell>
        <mxCell id="f_rpFH3b43a7El98nDZN-62" value="" style="endArrow=none;html=1;rounded=0;entryX=0.5;entryY=1;entryDx=0;entryDy=0;exitX=0.5;exitY=0;exitDx=0;exitDy=0;" edge="1" parent="1">
          <mxGeometry width="50" height="50" relative="1" as="geometry">
            <mxPoint x="939.49" y="480" as="sourcePoint" />
            <mxPoint x="939.49" y="440" as="targetPoint" />
          </mxGeometry>
        </mxCell>
        <mxCell id="f_rpFH3b43a7El98nDZN-63" value="" style="endArrow=none;html=1;rounded=0;entryX=0.5;entryY=0;entryDx=0;entryDy=0;entryPerimeter=0;exitX=0.5;exitY=0;exitDx=0;exitDy=0;" edge="1" parent="1">
          <mxGeometry width="50" height="50" relative="1" as="geometry">
            <mxPoint x="939.83" y="840" as="sourcePoint" />
            <mxPoint x="939.83" y="800" as="targetPoint" />
          </mxGeometry>
        </mxCell>
        <mxCell id="f_rpFH3b43a7El98nDZN-64" value="" style="endArrow=none;html=1;rounded=0;entryX=0.5;entryY=1;entryDx=0;entryDy=0;exitX=0.5;exitY=0;exitDx=0;exitDy=0;" edge="1" parent="1">
          <mxGeometry width="50" height="50" relative="1" as="geometry">
            <mxPoint x="1179.66" y="240" as="sourcePoint" />
            <mxPoint x="1179.66" y="200" as="targetPoint" />
          </mxGeometry>
        </mxCell>
        <mxCell id="f_rpFH3b43a7El98nDZN-65" value="" style="endArrow=none;html=1;rounded=0;entryX=0.5;entryY=1;entryDx=0;entryDy=0;exitX=0.5;exitY=0;exitDx=0;exitDy=0;" edge="1" parent="1">
          <mxGeometry width="50" height="50" relative="1" as="geometry">
            <mxPoint x="1179.66" y="120" as="sourcePoint" />
            <mxPoint x="1179.66" y="80" as="targetPoint" />
          </mxGeometry>
        </mxCell>
        <mxCell id="f_rpFH3b43a7El98nDZN-66" value="Конец" style="strokeWidth=2;html=1;shape=mxgraph.flowchart.terminator;whiteSpace=wrap;" vertex="1" parent="1">
          <mxGeometry x="1080" y="240" width="200" height="40" as="geometry" />
        </mxCell>
        <mxCell id="f_rpFH3b43a7El98nDZN-67" value="Начало" style="strokeWidth=2;html=1;shape=mxgraph.flowchart.terminator;whiteSpace=wrap;" vertex="1" parent="1">
          <mxGeometry x="1400" y="40" width="200" height="40" as="geometry" />
        </mxCell>
        <mxCell id="f_rpFH3b43a7El98nDZN-68" value="обозначение количества амёб в начале" style="rounded=0;whiteSpace=wrap;html=1;" vertex="1" parent="1">
          <mxGeometry x="1400" y="120" width="200" height="80" as="geometry" />
        </mxCell>
        <mxCell id="f_rpFH3b43a7El98nDZN-70" value="ввод числа" style="rounded=0;whiteSpace=wrap;html=1;" vertex="1" parent="1">
          <mxGeometry x="1400" y="240" width="200" height="80" as="geometry" />
        </mxCell>
        <mxCell id="f_rpFH3b43a7El98nDZN-71" value="каждые 3 часа до введенного числа" style="strokeWidth=2;html=1;shape=mxgraph.flowchart.loop_limit;whiteSpace=wrap;" vertex="1" parent="1">
          <mxGeometry x="1400" y="360" width="200" height="80" as="geometry" />
        </mxCell>
        <mxCell id="f_rpFH3b43a7El98nDZN-72" value="" style="strokeWidth=2;html=1;shape=mxgraph.flowchart.loop_limit;whiteSpace=wrap;rotation=-180;" vertex="1" parent="1">
          <mxGeometry x="1400" y="600" width="200" height="80" as="geometry" />
        </mxCell>
        <mxCell id="f_rpFH3b43a7El98nDZN-73" value="" style="rounded=0;whiteSpace=wrap;html=1;" vertex="1" parent="1">
          <mxGeometry x="1400" y="480" width="200" height="80" as="geometry" />
        </mxCell>
        <mxCell id="f_rpFH3b43a7El98nDZN-74" value="Удвоение количества амёб" style="text;html=1;whiteSpace=wrap;strokeColor=none;fillColor=none;align=center;verticalAlign=middle;rounded=0;" vertex="1" parent="1">
          <mxGeometry x="1470" y="505" width="60" height="30" as="geometry" />
        </mxCell>
        <mxCell id="f_rpFH3b43a7El98nDZN-75" value="Конец цикла" style="text;html=1;whiteSpace=wrap;strokeColor=none;fillColor=none;align=center;verticalAlign=middle;rounded=0;" vertex="1" parent="1">
          <mxGeometry x="1470" y="625" width="60" height="30" as="geometry" />
        </mxCell>
        <mxCell id="f_rpFH3b43a7El98nDZN-76" value="Вывод количества амёб" style="rounded=0;whiteSpace=wrap;html=1;" vertex="1" parent="1">
          <mxGeometry x="1400" y="720" width="200" height="80" as="geometry" />
        </mxCell>
        <mxCell id="f_rpFH3b43a7El98nDZN-77" value="Конец" style="strokeWidth=2;html=1;shape=mxgraph.flowchart.terminator;whiteSpace=wrap;" vertex="1" parent="1">
          <mxGeometry x="1400" y="840" width="200" height="40" as="geometry" />
        </mxCell>
        <mxCell id="f_rpFH3b43a7El98nDZN-79" value="" style="endArrow=none;html=1;rounded=0;entryX=0.5;entryY=1;entryDx=0;entryDy=0;exitX=0.5;exitY=0;exitDx=0;exitDy=0;exitPerimeter=0;" edge="1" parent="1">
          <mxGeometry width="50" height="50" relative="1" as="geometry">
            <mxPoint x="1499.4" y="360" as="sourcePoint" />
            <mxPoint x="1499.4" y="320" as="targetPoint" />
          </mxGeometry>
        </mxCell>
        <mxCell id="f_rpFH3b43a7El98nDZN-80" value="" style="endArrow=none;html=1;rounded=0;entryX=0.5;entryY=1;entryDx=0;entryDy=0;exitX=0.5;exitY=0;exitDx=0;exitDy=0;" edge="1" parent="1">
          <mxGeometry width="50" height="50" relative="1" as="geometry">
            <mxPoint x="1499.4" y="240" as="sourcePoint" />
            <mxPoint x="1499.4" y="200" as="targetPoint" />
          </mxGeometry>
        </mxCell>
        <mxCell id="f_rpFH3b43a7El98nDZN-81" value="" style="endArrow=none;html=1;rounded=0;entryX=0.5;entryY=1;entryDx=0;entryDy=0;exitX=0.5;exitY=0;exitDx=0;exitDy=0;" edge="1" parent="1">
          <mxGeometry width="50" height="50" relative="1" as="geometry">
            <mxPoint x="1499.4" y="120" as="sourcePoint" />
            <mxPoint x="1499.4" y="80" as="targetPoint" />
          </mxGeometry>
        </mxCell>
        <mxCell id="f_rpFH3b43a7El98nDZN-82" value="" style="endArrow=none;html=1;rounded=0;entryX=0.5;entryY=1;entryDx=0;entryDy=0;exitX=0.5;exitY=0;exitDx=0;exitDy=0;exitPerimeter=0;" edge="1" parent="1">
          <mxGeometry width="50" height="50" relative="1" as="geometry">
            <mxPoint x="1499.4" y="720" as="sourcePoint" />
            <mxPoint x="1499.4" y="680" as="targetPoint" />
          </mxGeometry>
        </mxCell>
        <mxCell id="f_rpFH3b43a7El98nDZN-83" value="" style="endArrow=none;html=1;rounded=0;entryX=0.5;entryY=1;entryDx=0;entryDy=0;exitX=0.5;exitY=0;exitDx=0;exitDy=0;" edge="1" parent="1">
          <mxGeometry width="50" height="50" relative="1" as="geometry">
            <mxPoint x="1499.4" y="600" as="sourcePoint" />
            <mxPoint x="1499.4" y="560" as="targetPoint" />
          </mxGeometry>
        </mxCell>
        <mxCell id="f_rpFH3b43a7El98nDZN-84" value="" style="endArrow=none;html=1;rounded=0;entryX=0.5;entryY=1;entryDx=0;entryDy=0;exitX=0.5;exitY=0;exitDx=0;exitDy=0;" edge="1" parent="1">
          <mxGeometry width="50" height="50" relative="1" as="geometry">
            <mxPoint x="1499.4" y="480" as="sourcePoint" />
            <mxPoint x="1499.4" y="440" as="targetPoint" />
          </mxGeometry>
        </mxCell>
        <mxCell id="f_rpFH3b43a7El98nDZN-85" value="" style="endArrow=none;html=1;rounded=0;entryX=0.5;entryY=0;entryDx=0;entryDy=0;entryPerimeter=0;exitX=0.5;exitY=0;exitDx=0;exitDy=0;" edge="1" parent="1">
          <mxGeometry width="50" height="50" relative="1" as="geometry">
            <mxPoint x="1499.7400000000002" y="840" as="sourcePoint" />
            <mxPoint x="1499.7400000000002" y="800" as="targetPoint" />
          </mxGeometry>
        </mxCell>
        <mxCell id="f_rpFH3b43a7El98nDZN-86" value="Начало" style="strokeWidth=2;html=1;shape=mxgraph.flowchart.terminator;whiteSpace=wrap;" vertex="1" parent="1">
          <mxGeometry x="1760" y="40" width="200" height="40" as="geometry" />
        </mxCell>
        <mxCell id="f_rpFH3b43a7El98nDZN-87" value="ввод числа" style="rounded=0;whiteSpace=wrap;html=1;" vertex="1" parent="1">
          <mxGeometry x="1760" y="120" width="200" height="80" as="geometry" />
        </mxCell>
        <mxCell id="f_rpFH3b43a7El98nDZN-89" value="Если число больше 45 или меньше 0" style="rhombus;whiteSpace=wrap;html=1;" vertex="1" parent="1">
          <mxGeometry x="1760" y="240" width="200" height="80" as="geometry" />
        </mxCell>
        <mxCell id="f_rpFH3b43a7El98nDZN-90" value="Вывод &quot;Число должно быть в пределе от 0 до 45&quot;" style="rounded=0;whiteSpace=wrap;html=1;" vertex="1" parent="1">
          <mxGeometry x="1760" y="360" width="200" height="80" as="geometry" />
        </mxCell>
        <mxCell id="f_rpFH3b43a7El98nDZN-92" value="" style="endArrow=none;html=1;rounded=0;exitX=0.5;exitY=0;exitDx=0;exitDy=0;" edge="1" parent="1" source="f_rpFH3b43a7El98nDZN-90">
          <mxGeometry width="50" height="50" relative="1" as="geometry">
            <mxPoint x="1810" y="370" as="sourcePoint" />
            <mxPoint x="1860" y="320" as="targetPoint" />
          </mxGeometry>
        </mxCell>
        <mxCell id="f_rpFH3b43a7El98nDZN-93" value="" style="endArrow=none;html=1;rounded=0;entryX=1;entryY=0.5;entryDx=0;entryDy=0;" edge="1" parent="1" target="f_rpFH3b43a7El98nDZN-89">
          <mxGeometry width="50" height="50" relative="1" as="geometry">
            <mxPoint x="1960" y="520" as="sourcePoint" />
            <mxPoint x="2050" y="310" as="targetPoint" />
            <Array as="points">
              <mxPoint x="2000" y="520" />
              <mxPoint x="2000" y="280" />
            </Array>
          </mxGeometry>
        </mxCell>
        <mxCell id="f_rpFH3b43a7El98nDZN-95" value="до конца введенного числа" style="strokeWidth=2;html=1;shape=mxgraph.flowchart.loop_limit;whiteSpace=wrap;" vertex="1" parent="1">
          <mxGeometry x="1760" y="480" width="200" height="80" as="geometry" />
        </mxCell>
        <mxCell id="f_rpFH3b43a7El98nDZN-96" value="сложить прошлое и текущее число" style="rounded=0;whiteSpace=wrap;html=1;" vertex="1" parent="1">
          <mxGeometry x="1760" y="600" width="200" height="80" as="geometry" />
        </mxCell>
        <mxCell id="f_rpFH3b43a7El98nDZN-97" value="прошлое число текущему" style="rounded=0;whiteSpace=wrap;html=1;" vertex="1" parent="1">
          <mxGeometry x="1760" y="720" width="200" height="80" as="geometry" />
        </mxCell>
        <mxCell id="f_rpFH3b43a7El98nDZN-98" value="текущее число = сумме 2-х прошлых" style="rounded=0;whiteSpace=wrap;html=1;" vertex="1" parent="1">
          <mxGeometry x="2040" y="120" width="200" height="80" as="geometry" />
        </mxCell>
        <mxCell id="f_rpFH3b43a7El98nDZN-99" value="" style="strokeWidth=2;html=1;shape=mxgraph.flowchart.loop_limit;whiteSpace=wrap;rotation=-180;" vertex="1" parent="1">
          <mxGeometry x="2040" y="240" width="200" height="80" as="geometry" />
        </mxCell>
        <mxCell id="f_rpFH3b43a7El98nDZN-100" value="Конец цикла" style="text;html=1;whiteSpace=wrap;strokeColor=none;fillColor=none;align=center;verticalAlign=middle;rounded=0;" vertex="1" parent="1">
          <mxGeometry x="2110" y="265" width="60" height="30" as="geometry" />
        </mxCell>
        <mxCell id="f_rpFH3b43a7El98nDZN-101" value="A" style="ellipse;whiteSpace=wrap;html=1;aspect=fixed;" vertex="1" parent="1">
          <mxGeometry x="1840" y="840" width="40" height="40" as="geometry" />
        </mxCell>
        <mxCell id="f_rpFH3b43a7El98nDZN-102" value="A" style="ellipse;whiteSpace=wrap;html=1;aspect=fixed;" vertex="1" parent="1">
          <mxGeometry x="2120" y="40" width="40" height="40" as="geometry" />
        </mxCell>
        <mxCell id="f_rpFH3b43a7El98nDZN-103" value="" style="endArrow=none;html=1;rounded=0;entryX=0;entryY=0.5;entryDx=0;entryDy=0;" edge="1" parent="1" target="f_rpFH3b43a7El98nDZN-90">
          <mxGeometry width="50" height="50" relative="1" as="geometry">
            <mxPoint x="1700" y="840" as="sourcePoint" />
            <mxPoint x="1740" y="400" as="targetPoint" />
            <Array as="points">
              <mxPoint x="1700" y="400" />
            </Array>
          </mxGeometry>
        </mxCell>
        <mxCell id="f_rpFH3b43a7El98nDZN-104" value="B" style="ellipse;whiteSpace=wrap;html=1;aspect=fixed;" vertex="1" parent="1">
          <mxGeometry x="1680" y="840" width="40" height="40" as="geometry" />
        </mxCell>
        <mxCell id="f_rpFH3b43a7El98nDZN-105" value="Конец" style="strokeWidth=2;html=1;shape=mxgraph.flowchart.terminator;whiteSpace=wrap;" vertex="1" parent="1">
          <mxGeometry x="2040" y="480" width="200" height="40" as="geometry" />
        </mxCell>
        <mxCell id="f_rpFH3b43a7El98nDZN-106" value="B" style="ellipse;whiteSpace=wrap;html=1;aspect=fixed;" vertex="1" parent="1">
          <mxGeometry x="2280" y="400" width="40" height="40" as="geometry" />
        </mxCell>
        <mxCell id="f_rpFH3b43a7El98nDZN-107" value="" style="endArrow=none;html=1;rounded=0;entryX=0.5;entryY=1;entryDx=0;entryDy=0;" edge="1" parent="1" target="f_rpFH3b43a7El98nDZN-106">
          <mxGeometry width="50" height="50" relative="1" as="geometry">
            <mxPoint x="2140" y="460" as="sourcePoint" />
            <mxPoint x="2300" y="460" as="targetPoint" />
            <Array as="points">
              <mxPoint x="2300" y="460" />
            </Array>
          </mxGeometry>
        </mxCell>
        <mxCell id="f_rpFH3b43a7El98nDZN-108" value="Вывод фибоначи" style="rounded=0;whiteSpace=wrap;html=1;" vertex="1" parent="1">
          <mxGeometry x="2040" y="360" width="200" height="80" as="geometry" />
        </mxCell>
        <mxCell id="f_rpFH3b43a7El98nDZN-109" value="" style="endArrow=none;html=1;rounded=0;entryX=0.5;entryY=1;entryDx=0;entryDy=0;exitX=0.5;exitY=0;exitDx=0;exitDy=0;exitPerimeter=0;" edge="1" parent="1">
          <mxGeometry width="50" height="50" relative="1" as="geometry">
            <mxPoint x="1859.41" y="720" as="sourcePoint" />
            <mxPoint x="1859.41" y="680" as="targetPoint" />
          </mxGeometry>
        </mxCell>
        <mxCell id="f_rpFH3b43a7El98nDZN-110" value="" style="endArrow=none;html=1;rounded=0;entryX=0.5;entryY=1;entryDx=0;entryDy=0;exitX=0.5;exitY=0;exitDx=0;exitDy=0;" edge="1" parent="1">
          <mxGeometry width="50" height="50" relative="1" as="geometry">
            <mxPoint x="1859.41" y="600" as="sourcePoint" />
            <mxPoint x="1859.41" y="560" as="targetPoint" />
          </mxGeometry>
        </mxCell>
        <mxCell id="f_rpFH3b43a7El98nDZN-111" value="" style="endArrow=none;html=1;rounded=0;entryX=0.5;entryY=1;entryDx=0;entryDy=0;exitX=0.5;exitY=0;exitDx=0;exitDy=0;" edge="1" parent="1">
          <mxGeometry width="50" height="50" relative="1" as="geometry">
            <mxPoint x="1859.41" y="480" as="sourcePoint" />
            <mxPoint x="1859.41" y="440" as="targetPoint" />
          </mxGeometry>
        </mxCell>
        <mxCell id="f_rpFH3b43a7El98nDZN-112" value="" style="endArrow=none;html=1;rounded=0;entryX=0.5;entryY=0;entryDx=0;entryDy=0;entryPerimeter=0;exitX=0.5;exitY=0;exitDx=0;exitDy=0;" edge="1" parent="1">
          <mxGeometry width="50" height="50" relative="1" as="geometry">
            <mxPoint x="1859.7500000000002" y="840" as="sourcePoint" />
            <mxPoint x="1859.7500000000002" y="800" as="targetPoint" />
          </mxGeometry>
        </mxCell>
        <mxCell id="f_rpFH3b43a7El98nDZN-113" value="" style="endArrow=none;html=1;rounded=0;entryX=0.5;entryY=1;entryDx=0;entryDy=0;exitX=0.5;exitY=0;exitDx=0;exitDy=0;exitPerimeter=0;" edge="1" parent="1">
          <mxGeometry width="50" height="50" relative="1" as="geometry">
            <mxPoint x="2139.54" y="360" as="sourcePoint" />
            <mxPoint x="2139.54" y="320" as="targetPoint" />
          </mxGeometry>
        </mxCell>
        <mxCell id="f_rpFH3b43a7El98nDZN-114" value="" style="endArrow=none;html=1;rounded=0;entryX=0.5;entryY=1;entryDx=0;entryDy=0;exitX=0.5;exitY=0;exitDx=0;exitDy=0;" edge="1" parent="1">
          <mxGeometry width="50" height="50" relative="1" as="geometry">
            <mxPoint x="2139.54" y="240" as="sourcePoint" />
            <mxPoint x="2139.54" y="200" as="targetPoint" />
          </mxGeometry>
        </mxCell>
        <mxCell id="f_rpFH3b43a7El98nDZN-115" value="" style="endArrow=none;html=1;rounded=0;entryX=0.5;entryY=1;entryDx=0;entryDy=0;exitX=0.5;exitY=0;exitDx=0;exitDy=0;" edge="1" parent="1">
          <mxGeometry width="50" height="50" relative="1" as="geometry">
            <mxPoint x="2139.54" y="120" as="sourcePoint" />
            <mxPoint x="2139.54" y="80" as="targetPoint" />
          </mxGeometry>
        </mxCell>
        <mxCell id="f_rpFH3b43a7El98nDZN-116" value="" style="endArrow=none;html=1;rounded=0;entryX=0.5;entryY=0;entryDx=0;entryDy=0;entryPerimeter=0;exitX=0.5;exitY=0;exitDx=0;exitDy=0;" edge="1" parent="1">
          <mxGeometry width="50" height="50" relative="1" as="geometry">
            <mxPoint x="2139.88" y="480" as="sourcePoint" />
            <mxPoint x="2139.88" y="440" as="targetPoint" />
          </mxGeometry>
        </mxCell>
        <mxCell id="f_rpFH3b43a7El98nDZN-117" value="" style="endArrow=none;html=1;rounded=0;exitX=0.5;exitY=0;exitDx=0;exitDy=0;" edge="1" parent="1">
          <mxGeometry width="50" height="50" relative="1" as="geometry">
            <mxPoint x="1860.06" y="120" as="sourcePoint" />
            <mxPoint x="1860.06" y="80" as="targetPoint" />
          </mxGeometry>
        </mxCell>
        <mxCell id="f_rpFH3b43a7El98nDZN-118" value="" style="endArrow=none;html=1;rounded=0;entryX=0.5;entryY=1;entryDx=0;entryDy=0;exitX=0.5;exitY=0;exitDx=0;exitDy=0;" edge="1" parent="1">
          <mxGeometry width="50" height="50" relative="1" as="geometry">
            <mxPoint x="1859.47" y="240" as="sourcePoint" />
            <mxPoint x="1859.47" y="200" as="targetPoint" />
          </mxGeometry>
        </mxCell>
      </root>
    </mxGraphModel>
  </diagram>
</mxfile>
